<?xml version="1.0" encoding="UTF-8"?> <svg xmlns="http://www.w3.org/2000/svg" width="455" height="147" viewBox="0 0 455 147" fill="none"><g clip-path="url(#clip0_88_20120)"><mask id="mask0_88_20120" style="mask-type:luminance" maskUnits="userSpaceOnUse" x="0" y="0" width="146" height="147"><path d="M73.1621 146.434C113.258 146.434 145.762 113.78 145.762 73.5C145.762 33.2195 113.258 0.565796 73.1621 0.565796C33.0664 0.565796 0.5625 33.2195 0.5625 73.5C0.5625 113.78 33.0664 146.434 73.1621 146.434Z" fill="white"></path></mask><g mask="url(#mask0_88_20120)"><path d="M146.03 110.19L115.763 67.633L137.448 37.2264H118.89L106.484 54.6484L94.0631 37.2264H75.5056L97.1907 67.633L77.0768 95.94L42.7187 22.2018L1.67578 110.19H19.0623L26.9033 93.3937H58.6379L66.5381 110.19H85.5255L106.484 80.6772L127.473 110.19H146.03ZM32.6099 81.1835L42.7632 59.4283L52.9906 81.1835H32.6099Z" fill="white"></path></g><path d="M42.7197 59.4283L32.5664 81.1835H52.9471L42.7197 59.4283Z" fill="#061456"></path><path d="M127.471 110.19L106.483 80.6772L85.524 110.19H66.5367L58.6364 93.3194H26.9019L19.0609 110.19H10.375C16.7663 121.223 25.9269 130.378 36.9419 136.741C47.957 143.105 60.441 146.453 73.1474 146.453C85.8538 146.453 98.3378 143.105 109.353 136.741C120.368 130.378 129.529 121.223 135.92 110.19H127.471Z" fill="#061456"></path><path d="M115.762 67.6331L140.085 101.762C144.335 91.6027 146.238 80.608 145.653 69.6036C145.068 58.5992 142.009 47.871 136.706 38.2241L115.762 67.6331Z" fill="#F7941D"></path><path d="M42.7194 22.2019L77.0775 95.9401L97.2506 67.648L75.5063 37.2265H94.0638L106.485 54.6485L118.891 37.2265H136.1C126.836 21.381 111.962 9.63062 94.4501 4.32314C76.9378 -0.984346 58.0769 0.541993 41.636 8.59716C25.1952 16.6523 12.3853 30.6431 5.76601 47.7739C-0.853315 64.9046 -0.79458 83.9138 5.93048 101.003L42.7194 22.2019Z" fill="#F7941D"></path><path d="M98.2852 37.1223L106.423 48.603L114.693 37.1223H98.2852Z" fill="#061456"></path><path d="M73.1621 146.434C113.258 146.434 145.762 113.78 145.762 73.5C145.762 33.2195 113.258 0.565796 73.1621 0.565796C33.0664 0.565796 0.5625 33.2195 0.5625 73.5C0.5625 113.78 33.0664 146.434 73.1621 146.434Z" stroke="white" stroke-width="0.75" stroke-miterlimit="10"></path><path d="M195.417 91.0857C195.443 89.5502 195.131 88.0277 194.504 86.6274C193.876 85.227 192.948 83.9833 191.786 82.9853C189.355 80.8112 185.056 78.9797 178.89 77.4906C171.479 75.7038 165.55 73.0235 161.415 69.5837C159.432 68.0288 157.834 66.0341 156.747 63.7556C155.659 61.4772 155.111 58.9769 155.145 56.4502C155.122 53.7708 155.721 51.1228 156.894 48.7164C158.067 46.31 159.783 44.2114 161.904 42.5871C166.41 38.8743 172.25 37.0229 179.424 37.0329C187.151 37.0329 193.298 39.1573 197.863 43.4061C200.009 45.2132 201.724 47.4813 202.881 50.0431C204.038 52.6048 204.607 55.3948 204.548 58.2073L204.459 58.5051H195.343C195.411 56.6255 195.077 54.7532 194.363 53.0143C193.65 51.2753 192.574 49.7102 191.208 48.4242C188.48 45.863 184.552 44.5675 179.454 44.5675C174.71 44.5675 171.069 45.6496 168.53 47.8137C167.296 48.8364 166.312 50.1287 165.652 51.592C164.991 53.0553 164.673 54.6508 164.72 56.2566C164.712 57.7906 165.081 59.3029 165.794 60.659C166.508 62.0151 167.544 63.173 168.811 64.0295C171.548 66.1043 175.995 67.916 182.151 69.4646C189.592 71.311 195.249 74.036 199.123 77.6395C200.994 79.3223 202.481 81.3905 203.484 83.7033C204.486 86.0161 204.981 88.5189 204.933 91.0411C204.988 93.7369 204.379 96.4045 203.161 98.8073C201.944 101.21 200.154 103.274 197.952 104.815C193.298 108.289 187.225 110.027 179.735 110.027C173.061 110.131 166.526 108.103 161.074 104.234C158.535 102.581 156.472 100.288 155.091 97.5837C153.71 94.8793 153.059 91.8584 153.203 88.8224L153.307 88.5395H162.408C162.29 90.5601 162.687 92.5775 163.561 94.4012C164.435 96.2249 165.758 97.7949 167.403 98.9629C171.048 101.426 175.374 102.671 179.765 102.522C183.795 102.758 187.798 101.716 191.208 99.5436C192.571 98.6132 193.674 97.3471 194.411 95.8663C195.148 94.3855 195.494 92.7395 195.417 91.0857Z" fill="#061456"></path><path d="M211.871 82.1216C211.871 74.319 213.971 67.8962 218.171 62.8532C220.252 60.3577 222.878 58.3773 225.844 57.0655C228.811 55.7537 232.038 55.1457 235.275 55.2888C242.548 55.2888 248.294 57.8053 252.514 62.8383C256.733 67.8713 258.838 74.2991 258.828 82.1216V83.1789C258.828 91.0411 256.728 97.4937 252.529 102.537C248.329 107.58 242.613 110.061 235.379 109.982C232.139 110.133 228.907 109.541 225.928 108.251C222.949 106.961 220.301 105.007 218.185 102.537C213.976 97.5235 211.871 91.1007 211.871 83.2682V82.1216ZM221.417 83.164C221.227 88.0104 222.448 92.8074 224.93 96.9676C226.101 98.639 227.654 100.003 229.46 100.945C231.266 101.886 233.271 102.378 235.305 102.378C237.34 102.378 239.344 101.886 241.15 100.945C242.956 100.003 244.51 98.639 245.681 96.9676C248.18 92.8136 249.412 88.0143 249.223 83.164V82.0919C249.402 77.2548 248.166 72.4711 245.666 68.3329C244.565 66.5691 243.017 65.1308 241.181 64.1653C239.345 63.1998 237.286 62.7419 235.216 62.8383C233.155 62.7365 231.105 63.1928 229.28 64.1593C227.455 65.1259 225.922 66.5674 224.841 68.3329C222.369 72.4813 221.149 77.2607 221.328 82.0919L221.417 83.164Z" fill="#061456"></path><path d="M365.014 102.417C368.064 102.449 371.025 101.394 373.374 99.4394C374.483 98.6149 375.385 97.5426 376.01 96.3072C376.635 95.0719 376.966 93.7074 376.976 92.3217H385.558L385.662 92.6046C385.81 97.1512 383.799 101.192 379.629 104.726C375.563 108.224 370.367 110.114 365.014 110.041C357.386 110.041 351.55 107.56 347.509 102.596C343.35 97.2274 341.209 90.5576 341.461 83.7596V81.5855C341.22 74.8025 343.372 68.1519 347.539 62.8085C351.58 57.7953 357.405 55.3136 365.014 55.3632C370.544 55.1414 375.942 57.0968 380.059 60.8132C381.933 62.4847 383.412 64.5549 384.389 66.8733C385.366 69.1916 385.816 71.6996 385.706 74.2147L385.602 74.5125H376.976C377.008 72.9644 376.717 71.4267 376.123 69.9983C375.528 68.5698 374.642 67.2822 373.522 66.2184C372.399 65.0979 371.06 64.22 369.586 63.6387C368.113 63.0574 366.537 62.785 364.955 62.8383C359.945 62.8383 356.363 64.645 354.209 68.2585C351.951 72.3138 350.839 76.9118 350.992 81.5558V83.5958C350.828 88.2722 351.935 92.9052 354.194 96.9973C356.368 100.621 359.974 102.427 365.014 102.417Z" fill="#061456"></path><path d="M416.401 109.967C409.088 109.967 403.278 107.525 398.97 102.641C394.661 97.7568 392.507 91.4184 392.507 83.6256V81.4814C392.279 74.6195 394.658 67.9273 399.162 62.7639C401.088 60.4349 403.501 58.5604 406.229 57.2736C408.958 55.9869 411.934 55.3194 414.948 55.3186C422.023 55.3186 427.369 57.4579 430.986 61.7364C434.603 66.015 436.411 71.7429 436.411 78.9202V84.8764H402.394L402.246 85.1147C402.187 89.5646 403.548 93.9164 406.129 97.5335C407.329 99.1379 408.902 100.422 410.711 101.274C412.52 102.125 414.509 102.518 416.505 102.418C419.4 102.473 422.282 102.004 425.013 101.033C427.341 100.174 429.485 98.8747 431.327 97.2059L435.062 103.445C432.923 105.476 430.404 107.06 427.651 108.106C424.054 109.443 420.235 110.075 416.401 109.967ZM415.022 62.8384C413.439 62.8404 411.877 63.2065 410.456 63.9085C409.036 64.6106 407.794 65.6299 406.826 66.8886C404.481 69.7989 403.033 73.3337 402.661 77.0589L402.749 77.2971H426.88V76.0314C427.015 72.6431 425.966 69.314 423.916 66.6206C422.834 65.3321 421.464 64.3182 419.919 63.661C418.374 63.0039 416.696 62.722 415.022 62.8384Z" fill="#061456"></path><path d="M292.873 107.674C295.517 106.092 297.704 103.844 299.217 101.152V108.94H308.422V56.2567H298.861V94.2426C297.824 96.6644 296.076 98.7109 293.851 100.11C291.297 101.574 288.386 102.291 285.447 102.179C284.005 102.299 282.554 102.074 281.215 101.523C279.875 100.972 278.684 100.11 277.74 99.0076C276.099 96.8932 275.274 93.0315 275.264 87.4227V56.2567H265.719V87.3185C265.719 95.0715 267.32 100.785 270.521 104.458C273.723 108.131 278.169 109.967 283.861 109.967C287.017 110.042 290.133 109.249 292.873 107.674Z" fill="#061456"></path><path d="M339.859 55.4526C336.516 54.926 333.099 55.6807 330.284 57.5671C328.001 59.2162 326.133 61.3781 324.829 63.8807V56.2567H315.328V108.94H324.874V71.3111C325.696 69.2724 327.085 67.5147 328.876 66.2483C330.763 64.9989 332.99 64.3693 335.249 64.4465L340.141 64.7295L341.46 55.7951C340.933 55.6509 340.399 55.5366 339.859 55.4526Z" fill="#061456"></path><path d="M445.706 36.7798C443.872 36.7886 442.081 37.3426 440.56 38.3718C439.038 39.4011 437.854 40.8597 437.156 42.5639C436.458 44.268 436.278 46.1416 436.638 47.9485C436.998 49.7554 437.882 51.4149 439.179 52.7179C440.476 54.0209 442.128 54.9092 443.927 55.2709C445.725 55.6326 447.59 55.4514 449.287 54.7503C450.983 54.0492 452.435 52.8595 453.459 51.331C454.484 49.8025 455.035 48.0036 455.044 46.1608C455.05 44.9273 454.812 43.7047 454.345 42.5639C453.878 41.423 453.19 40.3865 452.322 39.5142C451.454 38.6419 450.422 37.9512 449.287 37.4818C448.151 37.0125 446.934 36.7739 445.706 36.7798ZM445.706 53.9188C444.168 53.9041 442.668 53.4316 441.397 52.561C440.126 51.6905 439.14 50.4609 438.564 49.0278C437.988 47.5946 437.848 46.0221 438.162 44.509C438.475 42.9959 439.228 41.6101 440.325 40.5267C441.422 39.4432 442.814 38.7108 444.326 38.4219C445.837 38.133 447.4 38.3006 448.816 38.9035C450.233 39.5065 451.44 40.5177 452.284 41.8094C453.129 43.1011 453.573 44.6154 453.562 46.1608C453.554 47.1887 453.345 48.205 452.945 49.1515C452.546 50.0979 451.965 50.956 451.236 51.6766C450.506 52.3972 449.642 52.9662 448.693 53.3509C447.744 53.7357 446.729 53.9287 445.706 53.9188ZM448.27 47.2479C447.964 46.9218 447.609 46.6455 447.218 46.4289C447.946 46.3605 448.627 46.0393 449.145 45.5206C449.576 45.0167 449.804 44.3683 449.782 43.7039C449.78 43.177 449.631 42.6613 449.352 42.2148C449.096 41.7842 448.697 41.4575 448.226 41.2916C447.495 41.0768 446.733 40.9862 445.973 41.0236H441.852V50.7769H443.809V46.6522H444.194C444.529 46.6384 444.865 46.6786 445.187 46.7714C445.412 46.8592 445.615 46.9966 445.78 47.1734C446.152 47.6508 446.499 48.1479 446.818 48.6625L448.226 50.7918H450.597L449.412 48.8858C449.091 48.3003 448.708 47.7511 448.27 47.2479ZM445.306 45.1036H443.824V42.6318H445.306C446.091 42.6318 446.581 42.6318 446.788 42.6318C447.073 42.6675 447.336 42.8049 447.529 43.0189C447.715 43.2383 447.81 43.5205 447.796 43.8081C447.804 44.0671 447.731 44.322 447.588 44.5378C447.454 44.7315 447.262 44.8775 447.04 44.9547C446.45 45.0735 445.848 45.1234 445.247 45.1036H445.306Z" fill="#061456"></path><path d="M276.999 126.987C277.013 127.899 276.847 128.805 276.51 129.652C276.211 130.403 275.732 131.068 275.117 131.588L277.355 133.718L276.614 134.403L274.213 132.154C273.852 132.323 273.475 132.453 273.086 132.541C272.683 132.632 272.27 132.677 271.856 132.675C271.178 132.681 270.506 132.538 269.889 132.255C269.272 131.972 268.724 131.556 268.284 131.037C267.338 129.884 266.852 128.42 266.92 126.927V124.843C266.858 123.351 267.343 121.889 268.284 120.733C268.727 120.216 269.278 119.804 269.898 119.526C270.518 119.248 271.192 119.111 271.871 119.125C272.571 119.094 273.269 119.22 273.915 119.493C274.561 119.766 275.138 120.179 275.606 120.703C276.569 121.848 277.066 123.316 276.999 124.813V126.987ZM275.932 124.843C275.996 123.603 275.612 122.381 274.85 121.403C274.488 120.974 274.032 120.633 273.518 120.409C273.004 120.184 272.446 120.081 271.886 120.108C271.325 120.071 270.763 120.169 270.247 120.394C269.731 120.619 269.277 120.965 268.921 121.403C268.187 122.393 267.82 123.61 267.884 124.843V127.002C267.822 128.239 268.188 129.46 268.921 130.457C269.278 130.892 269.733 131.237 270.249 131.462C270.764 131.687 271.325 131.787 271.886 131.752C272.446 131.778 273.004 131.675 273.518 131.451C274.032 131.226 274.488 130.886 274.85 130.457C275.603 129.469 275.981 128.244 275.917 127.002L275.932 124.843Z" fill="#061456"></path><path d="M289.036 119.348V128.283C289.074 128.895 288.975 129.508 288.747 130.078C288.519 130.647 288.167 131.158 287.717 131.573C286.756 132.355 285.544 132.757 284.308 132.705C283.088 132.759 281.892 132.35 280.958 131.558C280.516 131.142 280.171 130.632 279.948 130.066C279.725 129.499 279.63 128.89 279.669 128.283V119.348H280.751V128.283C280.721 128.759 280.793 129.237 280.962 129.684C281.131 130.131 281.392 130.536 281.729 130.873C282.441 131.498 283.364 131.823 284.308 131.782C285.27 131.825 286.213 131.5 286.946 130.873C287.29 130.54 287.558 130.136 287.732 129.689C287.906 129.241 287.982 128.762 287.954 128.283V119.348H289.036Z" fill="#061456"></path><path d="M299.009 128.819H293.08L291.672 132.526H290.516L295.481 119.393H296.489L301.469 132.526H300.358L299.009 128.819ZM293.376 127.851H298.653L296.044 120.748L293.376 127.851Z" fill="#061456"></path><path d="M304.555 131.558H311.017V132.526H303.473V119.348H304.555V131.558Z" fill="#061456"></path><path d="M314.484 132.526H313.402V119.348H314.484V132.526Z" fill="#061456"></path><path d="M326.655 120.271H322.208V132.526H321.126V120.316H316.68V119.393H326.759L326.655 120.271Z" fill="#061456"></path><path d="M332.777 126.645L336.823 119.348H338.083L333.31 127.687V132.526H332.243V127.627L327.574 119.348H328.834L332.777 126.645Z" fill="#061456"></path><path d="M344.574 132.526V119.348H348.324C349.061 119.326 349.794 119.458 350.478 119.734C351.162 120.011 351.781 120.427 352.297 120.956C352.804 121.51 353.197 122.16 353.452 122.869C353.706 123.577 353.817 124.329 353.779 125.081V126.764C353.817 127.516 353.706 128.268 353.452 128.976C353.197 129.684 352.804 130.335 352.297 130.888C351.782 131.421 351.164 131.841 350.48 132.123C349.797 132.405 349.063 132.542 348.324 132.526H344.574ZM345.641 120.316V131.603H348.324C348.924 131.622 349.52 131.511 350.072 131.277C350.625 131.043 351.121 130.692 351.526 130.248C352.369 129.307 352.815 128.074 352.771 126.808V125.081C352.815 123.822 352.362 122.597 351.511 121.671C351.109 121.227 350.616 120.877 350.066 120.643C349.515 120.409 348.921 120.297 348.324 120.316H345.641Z" fill="#061456"></path><path d="M364.022 126.123H357.723V131.558H364.926V132.526H356.641V119.348H364.882V120.271H357.723V125.2H364.022V126.123Z" fill="#061456"></path><path d="M368.321 131.558H374.798V132.526H367.254V119.348H368.321V131.558Z" fill="#061456"></path><path d="M378.25 132.526H377.168V119.348H378.25V132.526Z" fill="#061456"></path><path d="M385.588 130.263L385.855 131.141L386.107 130.263L390.035 119.348H391.309L386.388 132.526H385.38L380.504 119.393H381.675L385.588 130.263Z" fill="#061456"></path><path d="M400.633 126.123H394.274V131.558H401.493V132.526H393.207V119.348H401.448V120.271H394.274V125.2H400.574L400.633 126.123Z" fill="#061456"></path><path d="M404.899 126.57V132.526H403.832V119.348H408.279C409.429 119.274 410.57 119.6 411.51 120.271C411.889 120.608 412.187 121.027 412.38 121.497C412.572 121.966 412.655 122.474 412.622 122.981C412.632 123.655 412.424 124.314 412.029 124.858C411.601 125.43 411.005 125.852 410.324 126.064C411.023 126.19 411.648 126.579 412.073 127.151C412.445 127.742 412.631 128.432 412.607 129.131V130.367C412.599 130.74 412.649 131.112 412.755 131.469C412.834 131.777 412.999 132.056 413.229 132.273V132.526H412.058C411.819 132.276 411.659 131.96 411.599 131.618C411.509 131.217 411.464 130.808 411.466 130.397V129.206C411.482 128.847 411.42 128.49 411.285 128.158C411.149 127.826 410.943 127.528 410.68 127.285C410.07 126.79 409.299 126.54 408.516 126.585L404.899 126.57ZM404.899 125.662H408.13C409.055 125.743 409.976 125.483 410.724 124.932C410.994 124.69 411.207 124.391 411.348 124.056C411.489 123.721 411.555 123.359 411.54 122.996C411.56 122.624 411.498 122.251 411.357 121.906C411.216 121.561 411 121.251 410.724 121.001C410.011 120.485 409.14 120.238 408.264 120.301H404.899V125.662Z" fill="#061456"></path><path d="M423.339 126.123H417.04V131.558H424.258V132.526H415.973V119.348H424.214V120.271H417.04V125.2H423.339V126.123Z" fill="#061456"></path><path d="M426.57 132.526V119.348H430.38C431.107 119.331 431.83 119.465 432.504 119.741C433.177 120.018 433.786 120.432 434.293 120.956C434.824 121.5 435.241 122.145 435.518 122.854C435.796 123.562 435.928 124.32 435.908 125.081V126.764C435.928 127.525 435.796 128.282 435.518 128.991C435.241 129.7 434.824 130.345 434.293 130.888C433.787 131.416 433.179 131.834 432.506 132.116C431.832 132.398 431.109 132.537 430.38 132.526H426.57ZM427.638 120.316V131.603H430.38C430.977 131.622 431.571 131.511 432.121 131.277C432.671 131.043 433.164 130.692 433.566 130.248C434.419 129.312 434.871 128.077 434.826 126.808V125.081C434.862 123.823 434.41 122.601 433.566 121.671C433.164 121.228 432.67 120.878 432.12 120.644C431.57 120.41 430.977 120.298 430.38 120.316H427.638Z" fill="#061456"></path></g><defs><clipPath id="clip0_88_20120"><rect width="455" height="147" fill="white"></rect></clipPath></defs></svg> 